<?xml version="1.0" encoding="utf-8"?>
<!-- Generator: Adobe Illustrator 19.2.1, SVG Export Plug-In . SVG Version: 6.00 Build 0)  -->
<svg version="1.1" id="Layer_1" xmlns="http://www.w3.org/2000/svg" xmlns:xlink="http://www.w3.org/1999/xlink" x="0px" y="0px"
	 viewBox="0 0 32 32" style="enable-background:new 0 0 32 32;" xml:space="preserve">
<style type="text/css">
	.st0{fill:#FFFFFF;}
</style>
<path id="arrow_left" d="M11.4,16L22.7,5.7c0.4-0.4,0.4-1,0-1.4c-0.4-0.4-1-0.4-1.4,0l-12,10.9C9.1,15.4,9,15.7,9,16
	c0,0.3,0.1,0.6,0.3,0.8l12,10.9c0.4,0.4,1,0.4,1.4,0c0.4-0.4,0.4-1,0-1.4L11.4,16"/>
<path id="arrow_right" d="M10.7,4.3c-0.4-0.4-1-0.4-1.4,0c-0.4,0.4-0.4,1,0,1.4L20.6,16L9.3,26.3c-0.4,0.4-0.4,1,0,1.4
	c0.4,0.4,1,0.4,1.4,0l12-10.9c0.2-0.2,0.3-0.5,0.3-0.8c0-0.3-0.1-0.6-0.3-0.8L10.7,4.3L10.7,4.3z"/>
<path id="arrow_up" class="st0" d="M4.3,21.3c-0.4,0.4-0.4,1,0,1.4c0.4,0.4,1,0.4,1.4,0L16,11.4l10.3,11.3c0.4,0.4,1,0.4,1.4,0
	c0.4-0.4,0.4-1,0-1.4l-10.9-12C16.6,9.1,16.3,9,16,9c-0.3,0-0.6,0.1-0.8,0.3L4.3,21.3L4.3,21.3z"/>
</svg>
