<?xml version="1.0" encoding="utf-8"?>
<!-- Generator: Adobe Illustrator 19.2.1, SVG Export Plug-In . SVG Version: 6.00 Build 0)  -->
<svg version="1.1" id="Layer_1" xmlns="http://www.w3.org/2000/svg" xmlns:xlink="http://www.w3.org/1999/xlink" x="0px" y="0px"
	 viewBox="0 0 32 32" style="enable-background:new 0 0 32 32;" xml:space="preserve">
<style type="text/css">
	.st0{fill:#FFFFFF;}
	.st1{fill:none;stroke:#FFFFFF;stroke-width:2;stroke-linecap:round;stroke-miterlimit:10;}
	.st2{fill:none;stroke:#FFFFFF;stroke-width:2;stroke-linecap:round;stroke-linejoin:round;stroke-miterlimit:10;}
</style>
<path id="arrow_left" d="M11.4,16L22.7,5.7c0.4-0.4,0.4-1,0-1.4c-0.4-0.4-1-0.4-1.4,0l-12,10.9C9.1,15.4,9,15.7,9,16
	c0,0.3,0.1,0.6,0.3,0.8l12,10.9c0.4,0.4,1,0.4,1.4,0c0.4-0.4,0.4-1,0-1.4L11.4,16"/>
<path id="arrow_right" d="M10.7,4.3c-0.4-0.4-1-0.4-1.4,0c-0.4,0.4-0.4,1,0,1.4L20.6,16L9.3,26.3c-0.4,0.4-0.4,1,0,1.4
	c0.4,0.4,1,0.4,1.4,0l12-10.9c0.2-0.2,0.3-0.5,0.3-0.8c0-0.3-0.1-0.6-0.3-0.8L10.7,4.3L10.7,4.3z"/>
<path id="arrow_up" class="st0" d="M4.3,21.3c-0.4,0.4-0.4,1,0,1.4c0.4,0.4,1,0.4,1.4,0L16,11.4l10.3,11.3c0.4,0.4,1,0.4,1.4,0
	c0.4-0.4,0.4-1,0-1.4l-10.9-12C16.6,9.1,16.3,9,16,9c-0.3,0-0.6,0.1-0.8,0.3L4.3,21.3L4.3,21.3z"/>
<g>
	<line class="st1" x1="-67.6" y1="-4.5" x2="-67.6" y2="-23.1"/>
	<polyline class="st1" points="-57.1,-6.4 -57.1,0.9 -78.1,0.9 -78.1,-6.4 	"/>
	<polyline class="st2" points="-77.3,-13.8 -67.6,-3.7 -58,-13.8 	"/>
</g>
<path id="download" class="st0" d="M27.5,29h-23v-8.4c0-0.6,0.4-1,1-1s1,0.4,1,1V27h19v-6.4c0-0.6,0.4-1,1-1s1,0.4,1,1V29z
	 M26.3,12.6c-0.4-0.4-1-0.4-1.4,0L17,20.9V4c0-0.6-0.4-1-1-1s-1,0.4-1,1v16.9l-7.9-8.3c-0.4-0.4-1-0.4-1.4,0c-0.4,0.4-0.4,1,0,1.4
	l9.6,10.1c0.2,0.2,0.4,0.3,0.7,0.3s0.5-0.1,0.7-0.3L26.4,14C26.7,13.6,26.7,13,26.3,12.6z"/>
</svg>
