<svg version="1.1" viewBox="0 0 207.6 46.6" xml:space="preserve" xmlns="http://www.w3.org/2000/svg"><path id="logo" d="m148.7 35.2h3.6c3.4 0 5.6 2.1 5.6 5.6 0 3.6-2.3 5.6-5.6 5.6h-3.6v-11.2zm3.6 10.2c2.8 0 4.6-1.6 4.6-4.6s-1.8-4.6-4.6-4.6h-2.4v9.2h2.4zm9-10.2h6.3v1h-5.2v4.1h4.3v1h-4.3v4.2h5.5v1h-6.6v-11.3zm9.6 9.1s1.2 1.2 2.9 1.2c1.2 0 2.2-0.7 2.2-1.9 0-2.8-5.6-2.1-5.6-5.6 0-1.6 1.4-3 3.5-3 1.9 0 3 1.1 3 1.1l-0.5 0.9s-1-1-2.5-1c-1.4 0-2.4 0.9-2.4 1.9 0 2.7 5.6 1.9 5.6 5.6 0 1.7-1.3 3-3.4 3-2.3 0-3.6-1.4-3.6-1.4l0.8-0.8zm9.4-9.1h1.1v11.2h-1.1v-11.2zm10-0.2c2.6 0 4 1.3 4 1.3l-0.6 0.8s-1.3-1.1-3.3-1.1c-2.7 0-4.5 2.1-4.5 4.8 0 2.8 1.9 4.8 4.4 4.8 2.2 0 3.5-1.6 3.5-1.6v-1.9h-1.9v-1h3v5.4h-1v-0.8-0.5s-1.3 1.5-3.7 1.5c-3.1 0-5.5-2.5-5.5-5.8s2.4-5.9 5.6-5.9zm7.9 0.2h1.1l5.7 8.1c0.4 0.6 0.9 1.5 0.9 1.5s-0.1-0.9-0.1-1.5v-8.1h1.1v11.2h-1.1l-5.7-8.1c-0.4-0.6-0.9-1.5-0.9-1.5s0.1 0.9 0.1 1.5v8.1h-1.1v-11.2zm-63 6.1c0-1.2 0.9-2.1 2.1-2.1s2.1 0.9 2.1 2.1-0.9 2.1-2.1 2.1-2.1-0.9-2.1-2.1zm-132.9-31.8s1.5 1.4 3.2 1.4c0.7 0 1.4-0.3 1.4-1.1 0-1.6-6.1-1.5-6.1-5.7 0.1-2.5 2.2-4.1 4.9-4.1 2.9 0 4.3 1.5 4.3 1.5l-1.4 2.7s-1.4-1.2-3-1.2c-0.7 0-1.4 0.3-1.4 1.1 0 1.7 6.1 1.4 6.1 5.7 0 2.2-1.7 4.2-4.7 4.2-3.2 0-4.9-1.9-4.9-1.9l1.6-2.6zm10.5-9.3h3.3v8.5c0 1.4 0.9 2.2 2.3 2.2s2.3-0.8 2.3-2.2v-8.5h3.3v8.5c0 3-2.2 5.2-5.6 5.2s-5.7-2.1-5.7-5.2v-8.5zm15.4 9.3s1.5 1.4 3.2 1.4c0.7 0 1.4-0.3 1.4-1.1 0-1.6-6.1-1.5-6.1-5.7 0-2.5 2.1-4.1 4.8-4.1 2.9 0 4.3 1.5 4.3 1.5l-1.4 2.7s-1.4-1.2-3-1.2c-0.7 0-1.4 0.3-1.4 1.1 0 1.7 6.1 1.4 6.1 5.7 0 2.2-1.7 4.2-4.7 4.2-3.2 0-4.9-1.9-4.9-1.9l1.7-2.6zm17.4 1.4h-4.2l-0.8 2.8h-3.4l4.6-13.5h3.5l4.6 13.5h-3.4l-0.9-2.8zm-2.1-7.6s-0.3 1.5-0.5 2.3l-0.8 2.6h2.7l-0.8-2.6c-0.2-0.8-0.5-2.3-0.6-2.3zm8.3-3.1h3.3l3.7 6.3c0.6 0.9 1.2 2.3 1.2 2.3s-0.2-1.5-0.2-2.3v-6.3h3.3v13.5h-3.3l-3.8-6.3c-0.4-0.9-1-2.3-1-2.3s0.2 1.5 0.2 2.3v6.3h-3.3v-13.5zm24.2 2.9h-4.1v-2.9h11.5v2.8h-4.1v10.6h-3.3v-10.5zm16-2.9h4.7c1.4 0 2 0.1 2.6 0.3 1.5 0.6 2.5 2 2.5 3.9 0 1.4-0.7 3-2 3.7 0 0 0.2 0.2 0.5 0.8l2.6 4.7h-3.7l-2.4-4.5h-1.5v4.5h-3.3v-13.4zm4.7 6.1c1.1 0 1.7-0.6 1.7-1.7 0-1-0.4-1.6-2-1.6h-1.1v3.3h1.4zm14.7-6.3c4.1 0 7 3 7 6.9 0 4-3 7-7 7-4.1 0-7-3.1-7-7-0.1-3.9 2.9-6.9 7-6.9zm0 10.9c2 0 3.6-1.7 3.6-4 0-2.2-1.6-3.9-3.6-3.9s-3.6 1.7-3.6 3.9c-0.1 2.3 1.5 4 3.6 4zm9.7-10.7h4.8c4.2 0 7 2.5 7 6.7s-2.7 6.8-7 6.8h-4.8v-13.5zm4.7 10.7c2.3 0 3.7-1.4 3.7-3.9 0-2.6-1.5-3.9-3.7-3.9h-1.4v7.8h1.4zm9.8-10.7h4.7c1.4 0 2 0.1 2.6 0.3 1.5 0.6 2.5 2 2.5 3.9 0 1.4-0.7 3-2 3.7 0 0 0.2 0.2 0.5 0.8l2.6 4.7h-3.7l-2.4-4.5h-1.5v4.5h-3.3v-13.4zm4.8 6.1c1.1 0 1.7-0.6 1.7-1.7 0-1-0.4-1.6-2-1.6h-1.1v3.3h1.4zm8.5-6.1h3.3v13.5h-3.3v-13.5zm13.1-0.2c3.4 0 5.2 1.8 5.2 1.8l-1.6 2.5s-1.4-1.2-3.3-1.2c-2.8 0-4 1.8-4 3.8 0 2.6 1.8 4.1 3.9 4.1 1.6 0 2.7-1 2.7-1v-1h-1.9v-2.9h4.8v7.6h-2.8v-0.4-0.6s-1.3 1.2-3.5 1.2c-3.4 0-6.6-2.6-6.6-7 0.1-3.9 3-6.9 7.1-6.9zm8.7 0.2h3.3v8.5c0 1.4 0.9 2.2 2.3 2.2s2.3-0.8 2.3-2.2v-8.5h3.3v8.5c0 3-2.2 5.2-5.6 5.2s-5.7-2.1-5.7-5.2v-8.5zm14.7 0h8.4v2.8h-5.1v2.5h4.1v2.8h-4.1v2.5h5.4v2.8h-8.7v-13.4zm10.6 11.4l5.2-7.4c0.6-0.8 1-1.2 1-1.2s-0.4 0.1-1 0.1h-5v-2.9h10.2v2l-5.2 7.4c-0.6 0.8-1 1.2-1 1.2s0.4-0.1 1-0.1h5.3v2.8h-10.5v-1.9zm11.6 12.2h-207.6v1.4h207.6v-1.4zm-200.4 19.1h-4.6l-1.3 3.6h-1.1l4.1-11.2h1.2l4.1 11.2h-1.1l-1.3-3.6zm-2.3-6.5s-0.2 0.9-0.4 1.5l-1.5 4h3.9l-1.5-4.1c-0.2-0.5-0.5-1.4-0.5-1.4zm7.3-1.2h3.3c1.1 0 1.7 0.1 2.1 0.3 1.1 0.5 1.7 1.5 1.7 2.9 0 1.5-0.9 2.7-2.1 3 0 0 0.1 0.1 0.3 0.4l2.4 4.5h-1.3l-2.5-4.7h-2.8v4.7h-1.1v-11.1zm3.7 5.5c1.4 0 2.2-0.9 2.2-2.3 0-0.9-0.4-1.6-1-2-0.3-0.2-0.7-0.3-1.6-0.3h-2.3v4.5h2.7zm11.9-5.7c2.7 0 4 1.5 4 1.5l-0.6 0.8s-1.3-1.2-3.4-1.2c-2.6 0-4.5 2-4.5 4.7s1.9 4.9 4.5 4.9c2.3 0 3.6-1.5 3.6-1.5l0.6 0.8s-1.5 1.7-4.3 1.7c-3.3 0-5.7-2.6-5.7-5.9 0.1-3.3 2.6-5.8 5.8-5.8zm7.4 0.2h1.1v5.1h6.5v-5.1h1.1v11.2h-1.1v-5.1h-6.5v5.1h-1.1v-11.2zm12.7 0h1.1v11.2h-1.1v-11.2zm7.6 1h-4v-1h9.2v1h-4v10.2h-1.1v-10.2zm7.5-1h6.3v1h-5.2v4.1h4.3v1h-4.3v4.2h5.5v1h-6.6v-11.3zm14.6-0.2c2.7 0 4 1.5 4 1.5l-0.6 0.8s-1.3-1.2-3.4-1.2c-2.6 0-4.5 2-4.5 4.7s1.9 4.9 4.5 4.9c2.3 0 3.6-1.5 3.6-1.5l0.6 0.8s-1.5 1.7-4.3 1.7c-3.3 0-5.7-2.6-5.7-5.9 0.2-3.3 2.6-5.8 5.8-5.8zm10 1.2h-4v-1h9.2v1h-4v10.2h-1.1v-10.2zm7.4-1h1.1v7.3c0 1.9 1.2 3.1 3.2 3.1 1.9 0 3.2-1.2 3.2-3.1v-7.3h1.1v7.3c0 2.5-1.7 4.1-4.3 4.1s-4.3-1.6-4.3-4.1v-7.3zm12.4 0h3.3c1.1 0 1.7 0.1 2.1 0.3 1.1 0.5 1.7 1.5 1.7 2.9 0 1.5-0.9 2.7-2.1 3 0 0 0.1 0.1 0.3 0.4l2.4 4.5h-1.3l-2.5-4.7h-2.8v4.7h-1.1v-11.1zm3.7 5.5c1.4 0 2.2-0.9 2.2-2.3 0-0.9-0.4-1.6-1-2-0.3-0.2-0.7-0.3-1.6-0.3h-2.3v4.5h2.7zm7-5.5h6.3v1h-5.2v4.1h4.3v1h-4.3v4.2h5.5v1h-6.6v-11.3z"/></svg>
