<?xml version="1.0" encoding="utf-8"?>
<!-- Generator: Adobe Illustrator 19.2.1, SVG Export Plug-In . SVG Version: 6.00 Build 0)  -->
<svg version="1.1" id="Layer_1" xmlns="http://www.w3.org/2000/svg" xmlns:xlink="http://www.w3.org/1999/xlink" x="0px" y="0px"
	 viewBox="0 0 207.6 46.6" style="enable-background:new 0 0 207.6 46.6;" xml:space="preserve">
<path d="M148.7,35.2h3.6c3.4,0,5.6,2.1,5.6,5.6c0,3.6-2.3,5.6-5.6,5.6h-3.6V35.2z M152.3,45.4c2.8,0,4.6-1.6,4.6-4.6
	c0-3-1.8-4.6-4.6-4.6h-2.4v9.2H152.3z M161.3,35.2h6.3v1h-5.2v4.1h4.3v1h-4.3v4.2h5.5v1h-6.6V35.2z M170.9,44.3c0,0,1.2,1.2,2.9,1.2
	c1.2,0,2.2-0.7,2.2-1.9c0-2.8-5.6-2.1-5.6-5.6c0-1.6,1.4-3,3.5-3c1.9,0,3,1.1,3,1.1l-0.5,0.9c0,0-1-1-2.5-1c-1.4,0-2.4,0.9-2.4,1.9
	c0,2.7,5.6,1.9,5.6,5.6c0,1.7-1.3,3-3.4,3c-2.3,0-3.6-1.4-3.6-1.4L170.9,44.3z M180.3,35.2h1.1v11.2h-1.1V35.2z M190.3,35
	c2.6,0,4,1.3,4,1.3l-0.6,0.8c0,0-1.3-1.1-3.3-1.1c-2.7,0-4.5,2.1-4.5,4.8c0,2.8,1.9,4.8,4.4,4.8c2.2,0,3.5-1.6,3.5-1.6v-1.9h-1.9v-1
	h3v5.4h-1v-0.8c0-0.2,0-0.5,0-0.5h0c0,0-1.3,1.5-3.7,1.5c-3.1,0-5.5-2.5-5.5-5.8C184.7,37.6,187.1,35,190.3,35z M198.2,35.2h1.1
	l5.7,8.1c0.4,0.6,0.9,1.5,0.9,1.5h0c0,0-0.1-0.9-0.1-1.5v-8.1h1.1v11.2h-1.1l-5.7-8.1c-0.4-0.6-0.9-1.5-0.9-1.5h0
	c0,0,0.1,0.9,0.1,1.5v8.1h-1.1V35.2z M135.2,41.3c0-1.2,0.9-2.1,2.1-2.1s2.1,0.9,2.1,2.1c0,1.2-0.9,2.1-2.1,2.1
	S135.2,42.5,135.2,41.3z M2.3,9.5c0,0,1.5,1.4,3.2,1.4c0.7,0,1.4-0.3,1.4-1.1c0-1.6-6.1-1.5-6.1-5.7C0.9,1.6,3,0,5.7,0
	C8.6,0,10,1.5,10,1.5L8.6,4.2c0,0-1.4-1.2-3-1.2C4.9,3,4.2,3.3,4.2,4.1c0,1.7,6.1,1.4,6.1,5.7c0,2.2-1.7,4.2-4.7,4.2
	c-3.2,0-4.9-1.9-4.9-1.9L2.3,9.5z M12.8,0.2h3.3v8.5c0,1.4,0.9,2.2,2.3,2.2c1.4,0,2.3-0.8,2.3-2.2V0.2h3.3v8.5c0,3-2.2,5.2-5.6,5.2
	c-3.4,0-5.7-2.1-5.7-5.2V0.2z M28.2,9.5c0,0,1.5,1.4,3.2,1.4c0.7,0,1.4-0.3,1.4-1.1c0-1.6-6.1-1.5-6.1-5.7c0-2.5,2.1-4.1,4.8-4.1
	c2.9,0,4.3,1.5,4.3,1.5l-1.4,2.7c0,0-1.4-1.2-3-1.2c-0.7,0-1.4,0.3-1.4,1.1c0,1.7,6.1,1.4,6.1,5.7c0,2.2-1.7,4.2-4.7,4.2
	c-3.2,0-4.9-1.9-4.9-1.9L28.2,9.5z M45.6,10.9h-4.2l-0.8,2.8h-3.4l4.6-13.5h3.5l4.6,13.5h-3.4L45.6,10.9z M43.5,3.3
	c0,0-0.3,1.5-0.5,2.3l-0.8,2.6h2.7l-0.8-2.6C43.9,4.8,43.6,3.3,43.5,3.3L43.5,3.3z M51.8,0.2h3.3l3.7,6.3C59.4,7.4,60,8.8,60,8.8h0
	c0,0-0.2-1.5-0.2-2.3V0.2h3.3v13.5h-3.3l-3.8-6.3C55.6,6.5,55,5.1,55,5.1h0c0,0,0.2,1.5,0.2,2.3v6.3h-3.3V0.2z M76,3.1h-4.1V0.2
	h11.5v2.8h-4.1v10.6H76V3.1z M92,0.2h4.7c1.4,0,2,0.1,2.6,0.3c1.5,0.6,2.5,2,2.5,3.9c0,1.4-0.7,3-2,3.7v0c0,0,0.2,0.2,0.5,0.8
	l2.6,4.7h-3.7l-2.4-4.5h-1.5v4.5H92V0.2z M96.7,6.3c1.1,0,1.7-0.6,1.7-1.7c0-1-0.4-1.6-2-1.6h-1.1v3.3H96.7z M111.4,0
	c4.1,0,7,3,7,6.9c0,4-3,7-7,7c-4.1,0-7-3.1-7-7C104.3,3,107.3,0,111.4,0z M111.4,10.9c2,0,3.6-1.7,3.6-4c0-2.2-1.6-3.9-3.6-3.9
	c-2,0-3.6,1.7-3.6,3.9C107.7,9.2,109.3,10.9,111.4,10.9z M121.1,0.2h4.8c4.2,0,7,2.5,7,6.7c0,4.2-2.7,6.8-7,6.8h-4.8V0.2z
	 M125.8,10.9c2.3,0,3.7-1.4,3.7-3.9c0-2.6-1.5-3.9-3.7-3.9h-1.4v7.8H125.8z M135.6,0.2h4.7c1.4,0,2,0.1,2.6,0.3
	c1.5,0.6,2.5,2,2.5,3.9c0,1.4-0.7,3-2,3.7v0c0,0,0.2,0.2,0.5,0.8l2.6,4.7h-3.7l-2.4-4.5h-1.5v4.5h-3.3V0.2z M140.4,6.3
	c1.1,0,1.7-0.6,1.7-1.7c0-1-0.4-1.6-2-1.6h-1.1v3.3H140.4z M148.9,0.2h3.3v13.5h-3.3V0.2z M162,0c3.4,0,5.2,1.8,5.2,1.8l-1.6,2.5
	c0,0-1.4-1.2-3.3-1.2c-2.8,0-4,1.8-4,3.8c0,2.6,1.8,4.1,3.9,4.1c1.6,0,2.7-1,2.7-1v-1h-1.9V6.1h4.8v7.6h-2.8v-0.4c0-0.3,0-0.6,0-0.6
	h0c0,0-1.3,1.2-3.5,1.2c-3.4,0-6.6-2.6-6.6-7C155,3,157.9,0,162,0z M170.7,0.2h3.3v8.5c0,1.4,0.9,2.2,2.3,2.2c1.4,0,2.3-0.8,2.3-2.2
	V0.2h3.3v8.5c0,3-2.2,5.2-5.6,5.2c-3.4,0-5.7-2.1-5.7-5.2V0.2z M185.4,0.2h8.4v2.8h-5.1v2.5h4.1v2.8h-4.1v2.5h5.4v2.8h-8.7V0.2z
	 M196,11.6l5.2-7.4c0.6-0.8,1-1.2,1-1.2v0c0,0-0.4,0.1-1,0.1h-5V0.2h10.2v2l-5.2,7.4c-0.6,0.8-1,1.2-1,1.2v0c0,0,0.4-0.1,1-0.1h5.3
	v2.8H196V11.6z M207.6,23.8H0v1.4h207.6V23.8z M7.2,42.9H2.6l-1.3,3.6H0.2l4.1-11.2h1.2l4.1,11.2H8.5L7.2,42.9z M4.9,36.4
	c0,0-0.2,0.9-0.4,1.5L3,41.9h3.9l-1.5-4.1C5.2,37.3,4.9,36.4,4.9,36.4L4.9,36.4z M12.2,35.2h3.3c1.1,0,1.7,0.1,2.1,0.3
	c1.1,0.5,1.7,1.5,1.7,2.9c0,1.5-0.9,2.7-2.1,3v0c0,0,0.1,0.1,0.3,0.4l2.4,4.5h-1.3l-2.5-4.7h-2.8v4.7h-1.1V35.2z M15.9,40.7
	c1.4,0,2.2-0.9,2.2-2.3c0-0.9-0.4-1.6-1-2c-0.3-0.2-0.7-0.3-1.6-0.3h-2.3v4.5H15.9z M27.8,35c2.7,0,4,1.5,4,1.5l-0.6,0.8
	c0,0-1.3-1.2-3.4-1.2c-2.6,0-4.5,2-4.5,4.7c0,2.7,1.9,4.9,4.5,4.9c2.3,0,3.6-1.5,3.6-1.5l0.6,0.8c0,0-1.5,1.7-4.3,1.7
	c-3.3,0-5.7-2.6-5.7-5.9C22.1,37.5,24.6,35,27.8,35z M35.2,35.2h1.1v5.1h6.5v-5.1h1.1v11.2h-1.1v-5.1h-6.5v5.1h-1.1V35.2z
	 M47.9,35.2H49v11.2h-1.1V35.2z M55.5,36.2h-4v-1h9.2v1h-4v10.2h-1.1V36.2z M63,35.2h6.3v1h-5.2v4.1h4.3v1h-4.3v4.2h5.5v1H63V35.2z
	 M77.6,35c2.7,0,4,1.5,4,1.5l-0.6,0.8c0,0-1.3-1.2-3.4-1.2c-2.6,0-4.5,2-4.5,4.7c0,2.7,1.9,4.9,4.5,4.9c2.3,0,3.6-1.5,3.6-1.5
	l0.6,0.8c0,0-1.5,1.7-4.3,1.7c-3.3,0-5.7-2.6-5.7-5.9C72,37.5,74.4,35,77.6,35z M87.6,36.2h-4v-1h9.2v1h-4v10.2h-1.1V36.2z M95,35.2
	h1.1v7.3c0,1.9,1.2,3.1,3.2,3.1c1.9,0,3.2-1.2,3.2-3.1v-7.3h1.1v7.3c0,2.5-1.7,4.1-4.3,4.1c-2.6,0-4.3-1.6-4.3-4.1V35.2z
	 M107.4,35.2h3.3c1.1,0,1.7,0.1,2.1,0.3c1.1,0.5,1.7,1.5,1.7,2.9c0,1.5-0.9,2.7-2.1,3v0c0,0,0.1,0.1,0.3,0.4l2.4,4.5h-1.3l-2.5-4.7
	h-2.8v4.7h-1.1V35.2z M111.1,40.7c1.4,0,2.2-0.9,2.2-2.3c0-0.9-0.4-1.6-1-2c-0.3-0.2-0.7-0.3-1.6-0.3h-2.3v4.5H111.1z M118.1,35.2
	h6.3v1h-5.2v4.1h4.3v1h-4.3v4.2h5.5v1h-6.6V35.2z"/>
</svg>
