<svg id="Layer_3" data-name="Layer 3" xmlns="http://www.w3.org/2000/svg" viewBox="0 0 337 68.92"><title>news-bar</title><path d="M324.07,16.73a2.82,2.82,0,0,0,1.45,1,1.74,1.74,0,0,0,.81-0.36l7.6-5.61a1.29,1.29,0,0,0,.54-1,2.24,2.24,0,0,0-.54-1.27,22.65,22.65,0,0,0-9.68-6.92A36.6,36.6,0,0,0,310.32,0a32.54,32.54,0,0,0-13.57,2.67,21.65,21.65,0,0,0-9.09,7.28,17.77,17.77,0,0,0-3.21,10.4A17.67,17.67,0,0,0,288.7,32q4.25,5.11,12,7.28l13.66,3.89a14.26,14.26,0,0,1,5.79,3,5.67,5.67,0,0,1,1.72,4.16,6.13,6.13,0,0,1-3.44,5.7q-3.44,1.9-9.5,1.9a19.65,19.65,0,0,1-9.14-1.81A21.68,21.68,0,0,1,293,49.93a1.64,1.64,0,0,0-1.36-.72,3.24,3.24,0,0,0-1.63.54l-7,4.79a2.21,2.21,0,0,0-.9,1.54,2.39,2.39,0,0,0,.36,1.18Q286,62.68,293.4,65.8A42.53,42.53,0,0,0,310,68.92a37.27,37.27,0,0,0,14.34-2.53,20.74,20.74,0,0,0,9.36-7.19,18.69,18.69,0,0,0,3.26-11,18.16,18.16,0,0,0-3.93-11.76q-3.93-4.88-12-7.15l-14.29-4.07q-7.33-2.17-7.33-6.87a6.09,6.09,0,0,1,2.89-5.25q2.89-2,8.41-2a18,18,0,0,1,7.91,1.49,17.71,17.71,0,0,1,5.38,4.12m-70-15.83h-8.14a2.22,2.22,0,0,0-2.44,1.54L232,44.32c-0.06.42-.21,0.62-0.45,0.59a0.78,0.78,0,0,1-.54-0.68L219.15,2.44a2.31,2.31,0,0,0-.77-1.18A2.94,2.94,0,0,0,216.71.9H207q-2.08,0-2.35,1.54L193,43.87a1,1,0,0,1-.54.81,1.36,1.36,0,0,1-.54-1.09L180.26,2.44a1.81,1.81,0,0,0-.72-1.18A3,3,0,0,0,177.91.9H166.6q-2.26,0-2.26,1.9a3.15,3.15,0,0,0,.09.9l18.45,62.41a2.93,2.93,0,0,0,1,1.45,3.07,3.07,0,0,0,1.81.45h10a3.08,3.08,0,0,0,1.81-.45,2.51,2.51,0,0,0,.9-1.45l11.49-39.34a2.11,2.11,0,0,1,.63-1.09,1,1,0,0,1,.45.9l11.4,39.52a2.57,2.57,0,0,0,2.8,1.9H235a2.9,2.9,0,0,0,1.72-.45,3,3,0,0,0,1-1.45L256.14,3.71a3.22,3.22,0,0,0,.09-0.9q0-1.9-2.17-1.9M88.55,2.62V66.12A2,2,0,0,0,89,67.56a2.12,2.12,0,0,0,1.54.45h45.58a1.52,1.52,0,0,0,1.81-1.63V57.8q0-1.36-1.63-1.36H105.37a1,1,0,0,1-.77-0.27,1.41,1.41,0,0,1-.23-0.9V41.06A1,1,0,0,1,105.64,40H125a1.21,1.21,0,0,0,1.45-1.27V30a1.32,1.32,0,0,0-1.54-1.45H105.73A1.28,1.28,0,0,1,104.37,27V13.93q0-1.45,1.72-1.45h28.85a1.68,1.68,0,0,0,1.9-1.9l0.09-8.14A1.29,1.29,0,0,0,135.58.9H90q-1.45,0-1.45,1.72M44.77,0.9a1.44,1.44,0,0,0-1.63,1.63V39.89c0,0.66-.15,1-0.45,1a1.44,1.44,0,0,1-.9-0.72L15.19,2.26a3.56,3.56,0,0,0-1.09-1.13A3.75,3.75,0,0,0,12.57.9H1.63A1.48,1.48,0,0,0,0,2.62V66.48Q0,68,1.81,68h9.41a2.33,2.33,0,0,0,1.4-.32,1.23,1.23,0,0,0,.41-1V26.59A0.48,0.48,0,0,1,13.34,26a0.69,0.69,0,0,1,.68.36L42.87,66.93a2.6,2.6,0,0,0,1,.9,3.49,3.49,0,0,0,1.27.18h9.14a1.87,1.87,0,0,0,1.22-.41,1.29,1.29,0,0,0,.5-1V2.26A1.13,1.13,0,0,0,54.81.9h-10Z"/></svg>